<?xml version="1.0" encoding="UTF-8" standalone="no" ?>
<!DOCTYPE svg PUBLIC "-//W3C//DTD SVG 1.1//EN" "http://www.w3.org/Graphics/SVG/1.1/DTD/svg11.dtd">
<svg xmlns="http://www.w3.org/2000/svg" xmlns:xlink="http://www.w3.org/1999/xlink" version="1.1" width="40" height="40" viewBox="0 0 40 40" xml:space="preserve">
<desc>Created with Fabric.js 4.6.0</desc>
<defs>
</defs>
<g transform="matrix(0.97 0 0 0.97 20.07 19.93)" id="_f5RIQxK6gpk4MhNqMFbL"  >
<path style="stroke: none; stroke-width: 1; stroke-dasharray: none; stroke-linecap: butt; stroke-dashoffset: 0; stroke-linejoin: miter; stroke-miterlimit: 4; fill: rgb(242,78,30); fill-rule: nonzero; opacity: 1;" vector-effect="non-scaling-stroke"  transform=" translate(-20, -18.35)" d="M 29 0 C 25.52 0 22.18 1.62 20 4.18 C 17.82 1.62 14.48 0 11 0 C 4.84 0 0 4.84 0 11 C 0 18.56 6.8 24.72 17.1 34.08 L 20 36.7 L 22.9 34.06 C 33.2 24.72 40 18.56 40 11 C 40 4.84 35.16 0 29 0 Z M 20.2 31.1 L 20 31.3 L 19.8 31.1 C 10.28 22.48 4 16.78 4 11 C 4 7 7 4 11 4 C 14.08 4 17.08 5.98 18.14 8.72 L 21.88 8.72 C 22.92 5.98 25.92 4 29 4 C 33 4 36 7 36 11 C 36 16.78 29.72 22.48 20.2 31.1 Z" stroke-linecap="round" />
</g>
<g transform="matrix(0.97 0 0 0.97 20.01 19.89)" id="yccEON6EEkfU_FloP3coS"  >
<path style="stroke: none; stroke-width: 1; stroke-dasharray: none; stroke-linecap: butt; stroke-dashoffset: 0; stroke-linejoin: miter; stroke-miterlimit: 4; fill: rgb(255,58,0); fill-rule: nonzero; opacity: 1;" vector-effect="non-scaling-stroke"  transform=" translate(-20, -18.35)" d="M 20 36.7 L 17.1 34.06 C 6.8 24.72 0 18.56 0 11 C 0 4.84 4.84 0 11 0 C 14.48 0 17.82 1.62 20 4.18 C 22.18 1.62 25.52 0 29 0 C 35.16 0 40 4.84 40 11 C 40 18.56 33.2 24.72 22.9 34.08 L 20 36.7 Z" stroke-linecap="round" />
</g>
<g transform="matrix(0.97 0 0 0.97 20.03 19.91)" id="4Y-0AkwHchy9cqe1VnoD5"  >
<path style="stroke: none; stroke-width: 1; stroke-dasharray: none; stroke-linecap: butt; stroke-dashoffset: 0; stroke-linejoin: miter; stroke-miterlimit: 4; fill: rgb(242,78,30); fill-rule: nonzero; opacity: 1;" vector-effect="non-scaling-stroke"  transform=" translate(-20, -18.35)" d="M 20 36.7 L 17.1 34.06 C 6.8 24.72 0 18.56 0 11 C 0 4.84 4.84 0 11 0 C 14.48 0 17.82 1.62 20 4.18 C 22.18 1.62 25.52 0 29 0 C 35.16 0 40 4.84 40 11 C 40 18.56 33.2 24.72 22.9 34.08 L 20 36.7 Z" stroke-linecap="round" />
</g>
</svg>